<!-- https://materialdesignicons.com/ -->

<svg xmlns="http://www.w3.org/2000/svg" >
  <svg >
    <symbol id="menu"
      xmlns="http://www.w3.org/2000/svg">
      <path d="M3,6H21V8H3V6M3,11H21V13H3V11M3,16H21V18H3V16Z" />
    </symbol>

    <symbol id="blog"
      xmlns="http://www.w3.org/2000/svg">
      <path d="M4,5H20V7H4V5M4,9H20V11H4V9M4,13H20V15H4V13M4,17H14V19H4V17Z" />
    </symbol>

    <symbol id="home"
      xmlns="http://www.w3.org/2000/svg">
      <path d="M12 5.69L17 10.19V18H15V12H9V18H7V10.19L12 5.69M12 3L2 12H5V20H11V14H13V20H19V12H22" />
    </symbol>

    <symbol id="device"
      xmlns="http://www.w3.org/2000/svg">
      <path d="M23,11H18A1,1 0 0,0 17,12V21A1,1 0 0,0 18,22H23A1,1 0 0,0 24,21V12A1,1 0 0,0 23,11M23,20H18V13H23V20M20,2H2C0.89,2 0,2.89 0,4V16A2,2 0 0,0 2,18H9V20H7V22H15V20H13V18H15V16H2V4H20V9H22V4C22,2.89 21.1,2 20,2M11.97,9L11,6L10.03,9H7L9.47,10.76L8.53,13.67L11,11.87L13.47,13.67L12.53,10.76L15,9H11.97Z" />
    </symbol>

    <symbol id="rocket"
      xmlns="http://www.w3.org/2000/svg">
      <path d="M13.13 22.19L11.5 18.36C13.07 17.78 14.54 17 15.9 16.09L13.13 22.19M5.64 12.5L1.81 10.87L7.91 8.1C7 9.46 6.22 10.93 5.64 12.5M19.22 4C19.5 4 19.75 4 19.96 4.05C20.13 5.44 19.94 8.3 16.66 11.58C14.96 13.29 12.93 14.6 10.65 15.47L8.5 13.37C9.42 11.06 10.73 9.03 12.42 7.34C15.18 4.58 17.64 4 19.22 4M19.22 2C17.24 2 14.24 2.69 11 5.93C8.81 8.12 7.5 10.53 6.65 12.64C6.37 13.39 6.56 14.21 7.11 14.77L9.24 16.89C9.62 17.27 10.13 17.5 10.66 17.5C10.89 17.5 11.13 17.44 11.36 17.35C13.5 16.53 15.88 15.19 18.07 13C23.73 7.34 21.61 2.39 21.61 2.39S20.7 2 19.22 2M14.54 9.46C13.76 8.68 13.76 7.41 14.54 6.63S16.59 5.85 17.37 6.63C18.14 7.41 18.15 8.68 17.37 9.46C16.59 10.24 15.32 10.24 14.54 9.46M8.88 16.53L7.47 15.12L8.88 16.53M6.24 22L9.88 18.36C9.54 18.27 9.21 18.12 8.91 17.91L4.83 22H6.24M2 22H3.41L8.18 17.24L6.76 15.83L2 20.59V22M2 19.17L6.09 15.09C5.88 14.79 5.73 14.47 5.64 14.12L2 17.76V19.17Z" />
    </symbol>

    <symbol id="leaf"
      xmlns="http://www.w3.org/2000/svg">
      <path d="M17,8C8,10 5.9,16.17 3.82,21.34L5.71,22L6.66,19.7C7.14,19.87 7.64,20 8,20C19,20 22,3 22,3C21,5 14,5.25 9,6.25C4,7.25 2,11.5 2,13.5C2,15.5 3.75,17.25 3.75,17.25C7,8 17,8 17,8Z" />  
    </symbol>
    
    <symbol id="material"
      xmlns="http://www.w3.org/2000/svg">
      <path d="M8,16.61V15.37L14,11.91V7.23L9,10.12L4,7.23V13L3,13.58L2,13V5L3.07,4.38L9,7.81L12.93,5.54L14.93,4.38L16,5V13.06L10.92,16L14.97,18.33L20,15.43V11L21,10.42L22,11V16.58L14.97,20.64L8,16.61M22,9.75L21,10.33L20,9.75V8.58L21,8L22,8.58V9.75Z" />
    </symbol>

    <symbol id="blog"
      xmlns="http://www.w3.org/2000/svg">
      <path d="M19 5V19H5V5H19M21 3H3V21H21V3M17 17H7V16H17V17M17 15H7V14H17V15M17 12H7V7H17V12Z" />
    </symbol>

    <symbol id="about"
      xmlns="http://www.w3.org/2000/svg">
      <path d="M11,9H13V7H11M12,20C7.59,20 4,16.41 4,12C4,7.59 7.59,4 12,4C16.41,4 20,7.59 20,12C20,16.41 16.41,20 12,20M12,2A10,10 0 0,0 2,12A10,10 0 0,0 12,22A10,10 0 0,0 22,12A10,10 0 0,0 12,2M11,17H13V11H11V17Z" />
    </symbol>

    <symbol id="github"
      xmlns="http://www.w3.org/2000/svg">
      <path d="M12,2A10,10 0 0,0 2,12C2,16.42 4.87,20.17 8.84,21.5C9.34,21.58 9.5,21.27 9.5,21C9.5,20.77 9.5,20.14 9.5,19.31C6.73,19.91 6.14,17.97 6.14,17.97C5.68,16.81 5.03,16.5 5.03,16.5C4.12,15.88 5.1,15.9 5.1,15.9C6.1,15.97 6.63,16.93 6.63,16.93C7.5,18.45 8.97,18 9.54,17.76C9.63,17.11 9.89,16.67 10.17,16.42C7.95,16.17 5.62,15.31 5.62,11.5C5.62,10.39 6,9.5 6.65,8.79C6.55,8.54 6.2,7.5 6.75,6.15C6.75,6.15 7.59,5.88 9.5,7.17C10.29,6.95 11.15,6.84 12,6.84C12.85,6.84 13.71,6.95 14.5,7.17C16.41,5.88 17.25,6.15 17.25,6.15C17.8,7.5 17.45,8.54 17.35,8.79C18,9.5 18.38,10.39 18.38,11.5C18.38,15.32 16.04,16.16 13.81,16.41C14.17,16.72 14.5,17.33 14.5,18.26C14.5,19.6 14.5,20.68 14.5,21C14.5,21.27 14.66,21.59 15.17,21.5C19.14,20.16 22,16.42 22,12A10,10 0 0,0 12,2Z" />
    </symbol>

    <symbol id="close"
      xmlns="http://www.w3.org/2000/svg">
      <path d="M19,6.41L17.59,5L12,10.59L6.41,5L5,6.41L10.59,12L5,17.59L6.41,19L12,13.41L17.59,19L19,17.59L13.41,12L19,6.41Z" />
    </symbol>

    <symbol id="top"
      xmlns="http://www.w3.org/2000/svg">
      <path d="M13,18H11V10L7.5,13.5L6.08,12.08L12,6.16L17.92,12.08L16.5,13.5L13,10V18M12,2A10,10 0 0,1 22,12A10,10 0 0,1 12,22A10,10 0 0,1 2,12A10,10 0 0,1 12,2M12,4A8,8 0 0,0 4,12A8,8 0 0,0 12,20A8,8 0 0,0 20,12A8,8 0 0,0 12,4Z" />
    </symbol>

    <symbol id="help"
      xmlns="http://www.w3.org/2000/svg">
      <path d="M8 2C11.9 2 15 5.1 15 9C15 11.4 13.8 13.5 12 14.7V17C12 17.6 11.6 18 11 18H5C4.4 18 4 17.6 4 17V14.7C2.2 13.5 1 11.4 1 9C1 5.1 4.1 2 8 2M5 21V20H11V21C11 21.6 10.6 22 10 22H6C5.4 22 5 21.6 5 21M8 4C5.2 4 3 6.2 3 9C3 11.1 4.2 12.8 6 13.6V16H10V13.6C11.8 12.8 13 11.1 13 9C13 6.2 10.8 4 8 4M20.5 14.5V16H19V14.5H20.5M18.5 9.5H17V9C17 7.3 18.3 6 20 6S23 7.3 23 9C23 10 22.5 10.9 21.7 11.4L21.4 11.6C20.8 12 20.5 12.6 20.5 13.3V13.5H19V13.3C19 12.1 19.6 11 20.6 10.4L20.9 10.2C21.3 9.9 21.5 9.5 21.5 9C21.5 8.2 20.8 7.5 20 7.5S18.5 8.2 18.5 9V9.5Z" />
    </symbol>

    <symbol id="question"
      xmlns="http://www.w3.org/2000/svg">
      <path d="M11 18H13V16H11V18M12 6C9.8 6 8 7.8 8 10H10C10 8.9 10.9 8 12 8S14 8.9 14 10C14 12 11 11.8 11 15H13C13 12.8 16 12.5 16 10C16 7.8 14.2 6 12 6M19 5V19H5V5H19M19 3H5C3.9 3 3 3.9 3 5V19C3 20.1 3.9 21 5 21H19C20.1 21 21 20.1 21 19V5C21 3.9 20.1 3 19 3Z" />
    </symbol>

    <symbol id="pin"
      xmlns="http://www.w3.org/2000/svg">
      <path d="M12,11.5A2.5,2.5 0 0,1 9.5,9A2.5,2.5 0 0,1 12,6.5A2.5,2.5 0 0,1 14.5,9A2.5,2.5 0 0,1 12,11.5M12,2A7,7 0 0,0 5,9C5,14.25 12,22 12,22C12,22 19,14.25 19,9A7,7 0 0,0 12,2Z" />
    </symbol>


    <symbol id="account"
      xmlns="http://www.w3.org/2000/svg">
      <path d="M22,3H2A2,2 0 0,0 0,5V19A2,2 0 0,0 2,21H22A2,2 0 0,0 24,19V5A2,2 0 0,0 22,3M22,19H2V5H22V19M21,6H14V11H21V6M20,8L17.5,9.75L15,8V7L17.5,8.75L20,7V8M9,12A3,3 0 0,0 12,9A3,3 0 0,0 9,6A3,3 0 0,0 6,9A3,3 0 0,0 9,12M9,8A1,1 0 0,1 10,9A1,1 0 0,1 9,10A1,1 0 0,1 8,9A1,1 0 0,1 9,8M15,16.59C15,14.09 11.03,13 9,13C6.97,13 3,14.09 3,16.59V18H15V16.59M5.5,16C6.22,15.5 7.7,15 9,15C10.3,15 11.77,15.5 12.5,16H5.5Z" />
    </symbol>

    <symbol id="settings"
      xmlns="http://www.w3.org/2000/svg">
      <path d="M12,15.5A3.5,3.5 0 0,1 8.5,12A3.5,3.5 0 0,1 12,8.5A3.5,3.5 0 0,1 15.5,12A3.5,3.5 0 0,1 12,15.5M19.43,12.97C19.47,12.65 19.5,12.33 19.5,12C19.5,11.67 19.47,11.34 19.43,11L21.54,9.37C21.73,9.22 21.78,8.95 21.66,8.73L19.66,5.27C19.54,5.05 19.27,4.96 19.05,5.05L16.56,6.05C16.04,5.66 15.5,5.32 14.87,5.07L14.5,2.42C14.46,2.18 14.25,2 14,2H10C9.75,2 9.54,2.18 9.5,2.42L9.13,5.07C8.5,5.32 7.96,5.66 7.44,6.05L4.95,5.05C4.73,4.96 4.46,5.05 4.34,5.27L2.34,8.73C2.21,8.95 2.27,9.22 2.46,9.37L4.57,11C4.53,11.34 4.5,11.67 4.5,12C4.5,12.33 4.53,12.65 4.57,12.97L2.46,14.63C2.27,14.78 2.21,15.05 2.34,15.27L4.34,18.73C4.46,18.95 4.73,19.03 4.95,18.95L7.44,17.94C7.96,18.34 8.5,18.68 9.13,18.93L9.5,21.58C9.54,21.82 9.75,22 10,22H14C14.25,22 14.46,21.82 14.5,21.58L14.87,18.93C15.5,18.67 16.04,18.34 16.56,17.94L19.05,18.95C19.27,19.03 19.54,18.95 19.66,18.73L21.66,15.27C21.78,15.05 21.73,14.78 21.54,14.63L19.43,12.97Z" />
    </symbol>

    <symbol id="night"
      xmlns="http://www.w3.org/2000/svg">
      <path d="M17.75,4.09L15.22,6.03L16.13,9.09L13.5,7.28L10.87,9.09L11.78,6.03L9.25,4.09L12.44,4L13.5,1L14.56,4L17.75,4.09M21.25,11L19.61,12.25L20.2,14.23L18.5,13.06L16.8,14.23L17.39,12.25L15.75,11L17.81,10.95L18.5,9L19.19,10.95L21.25,11M18.97,15.95C19.8,15.87 20.69,17.05 20.16,17.8C19.84,18.25 19.5,18.67 19.08,19.07C15.17,23 8.84,23 4.94,19.07C1.03,15.17 1.03,8.83 4.94,4.93C5.34,4.53 5.76,4.17 6.21,3.85C6.96,3.32 8.14,4.21 8.06,5.04C7.79,7.9 8.75,10.87 10.95,13.06C13.14,15.26 16.1,16.22 18.97,15.95M17.33,17.97C14.5,17.81 11.7,16.64 9.53,14.5C7.36,12.31 6.2,9.5 6.04,6.68C3.23,9.82 3.34,14.64 6.35,17.66C9.37,20.67 14.19,20.78 17.33,17.97Z" />
    </symbol>

    <symbol id="day"
      xmlns="http://www.w3.org/2000/svg">
      <path d="M3.55 19.09L4.96 20.5L6.76 18.71L5.34 17.29M12 6C8.69 6 6 8.69 6 12S8.69 18 12 18 18 15.31 18 12C18 8.68 15.31 6 12 6M20 13H23V11H20M17.24 18.71L19.04 20.5L20.45 19.09L18.66 17.29M20.45 5L19.04 3.6L17.24 5.39L18.66 6.81M13 1H11V4H13M6.76 5.39L4.96 3.6L3.55 5L5.34 6.81L6.76 5.39M1 13H4V11H1M13 20H11V23H13" />
    </symbol>

    <symbol id="close"
      xmlns="http://www.w3.org/2000/svg">
      <path d="M19,6.41L17.59,5L12,10.59L6.41,5L5,6.41L10.59,12L5,17.59L6.41,19L12,13.41L17.59,19L19,17.59L13.41,12L19,6.41Z" />
    </symbol>

    <symbol id="share"
      xmlns="http://www.w3.org/2000/svg">
      <path d="M14,5V9C7,10 4,15 3,20C5.5,16.5 9,14.9 14,14.9V19L21,12L14,5M16,9.83L18.17,12L16,14.17V12.9H14C11.93,12.9 10.07,13.28 8.34,13.85C9.74,12.46 11.54,11.37 14.28,11L16,10.73V9.83Z" />
    </symbol>

    <symbol id="login"
      xmlns="http://www.w3.org/2000/svg">
      <path d="M11 7L9.6 8.4L12.2 11H2V13H12.2L9.6 15.6L11 17L16 12L11 7M20 19H12V21H20C21.1 21 22 20.1 22 19V5C22 3.9 21.1 3 20 3H12V5H20V19Z" />
    </symbol>

    <symbol id="info"
      xmlns="http://www.w3.org/2000/svg">
      <path d="M11,9H13V7H11M12,20C7.59,20 4,16.41 4,12C4,7.59 7.59,4 12,4C16.41,4 20,7.59 20,12C20,16.41 16.41,20 12,20M12,2A10,10 0 0,0 2,12A10,10 0 0,0 12,22A10,10 0 0,0 22,12A10,10 0 0,0 12,2M11,17H13V11H11V17Z" />
    </symbol>

    <symbol id="bell"
      xmlns="http://www.w3.org/2000/svg">
      <path d="M10 21H14C14 22.1 13.1 23 12 23S10 22.1 10 21M21 19V20H3V19L5 17V11C5 7.9 7 5.2 10 4.3V4C10 2.9 10.9 2 12 2S14 2.9 14 4V4.3C17 5.2 19 7.9 19 11V17L21 19M17 11C17 8.2 14.8 6 12 6S7 8.2 7 11V18H17V11Z" />
    </symbol>


    <symbol id="linkedin"
      xmlns="http://www.w3.org/2000/svg">
      <path d="M19 3A2 2 0 0 1 21 5V19A2 2 0 0 1 19 21H5A2 2 0 0 1 3 19V5A2 2 0 0 1 5 3H19M18.5 18.5V13.2A3.26 3.26 0 0 0 15.24 9.94C14.39 9.94 13.4 10.46 12.92 11.24V10.13H10.13V18.5H12.92V13.57C12.92 12.8 13.54 12.17 14.31 12.17A1.4 1.4 0 0 1 15.71 13.57V18.5H18.5M6.88 8.56A1.68 1.68 0 0 0 8.56 6.88C8.56 5.95 7.81 5.19 6.88 5.19A1.69 1.69 0 0 0 5.19 6.88C5.19 7.81 5.95 8.56 6.88 8.56M8.27 18.5V10.13H5.5V18.5H8.27Z" />
    </symbol>

  </svg>
</svg>