<?xml version="1.0" encoding="UTF-8" standalone="no"?>
<!DOCTYPE svg PUBLIC "-//W3C//DTD SVG 1.1//EN" "http://www.w3.org/Graphics/SVG/1.1/DTD/svg11.dtd">
<svg xmlns="http://www.w3.org/2000/svg" version="1.1" viewBox="0.00 0.00 512.00 512.00">
<g stroke-width="2.00" fill="none" stroke-linecap="butt">
<path stroke="#808080" vector-effect="non-scaling-stroke" d="
  M 340.25 289.69
  L 406.00 355.47
  A 1.59 1.59 0.0 0 0 408.03 355.65
  C 408.90 355.04 409.62 353.88 409.62 352.79
  Q 409.75 258.98 409.65 166.65
  A 2.39 2.39 0.0 0 0 405.57 164.96
  L 340.30 230.26
  Q 339.68 230.88 339.68 230.01
  Q 339.68 206.22 339.71 182.83
  Q 339.72 178.44 339.45 173.81
  Q 339.16 168.55 337.71 165.41
  Q 332.62 154.31 319.93 154.31
  Q 211.05 154.31 111.71 154.32
  C 101.63 154.32 93.52 161.06 92.61 171.22
  Q 92.32 174.36 92.32 177.66
  Q 92.32 260.42 92.32 343.67
  C 92.31 355.67 98.71 365.68 111.75 365.68
  Q 211.77 365.68 317.75 365.60
  Q 323.36 365.60 325.01 365.27
  C 333.39 363.64 338.68 355.74 339.39 347.34
  Q 339.74 343.17 339.72 338.97
  Q 339.62 315.47 339.72 289.91
  Q 339.72 289.16 340.25 289.69"
/>
<path stroke="#808080" vector-effect="non-scaling-stroke" d="
  M 302.34 190.96
  A 0.27 0.27 0.0 0 0 302.07 190.69
  L 129.95 190.69
  A 0.27 0.27 0.0 0 0 129.68 190.96
  L 129.68 329.06
  A 0.27 0.27 0.0 0 0 129.95 329.33
  L 302.07 329.33
  A 0.27 0.27 0.0 0 0 302.34 329.06
  L 302.34 190.96"
/>
</g>
<path fill="transparent" d="
  M 0.00 0.00
  L 512.00 0.00
  L 512.00 512.00
  L 0.00 512.00
  L 0.00 0.00
  Z
  M 340.25 289.69
  L 406.00 355.47
  A 1.59 1.59 0.0 0 0 408.03 355.65
  C 408.90 355.04 409.62 353.88 409.62 352.79
  Q 409.75 258.98 409.65 166.65
  A 2.39 2.39 0.0 0 0 405.57 164.96
  L 340.30 230.26
  Q 339.68 230.88 339.68 230.01
  Q 339.68 206.22 339.71 182.83
  Q 339.72 178.44 339.45 173.81
  Q 339.16 168.55 337.71 165.41
  Q 332.62 154.31 319.93 154.31
  Q 211.05 154.31 111.71 154.32
  C 101.63 154.32 93.52 161.06 92.61 171.22
  Q 92.32 174.36 92.32 177.66
  Q 92.32 260.42 92.32 343.67
  C 92.31 355.67 98.71 365.68 111.75 365.68
  Q 211.77 365.68 317.75 365.60
  Q 323.36 365.60 325.01 365.27
  C 333.39 363.64 338.68 355.74 339.39 347.34
  Q 339.74 343.17 339.72 338.97
  Q 339.62 315.47 339.72 289.91
  Q 339.72 289.16 340.25 289.69
  Z"
/>
<path fill="#ffffff" d="
  M 339.72 289.91
  Q 339.62 315.47 339.72 338.97
  Q 339.74 343.17 339.39 347.34
  C 338.68 355.74 333.39 363.64 325.01 365.27
  Q 323.36 365.60 317.75 365.60
  Q 211.77 365.68 111.75 365.68
  C 98.71 365.68 92.31 355.67 92.32 343.67
  Q 92.32 260.42 92.32 177.66
  Q 92.32 174.36 92.61 171.22
  C 93.52 161.06 101.63 154.32 111.71 154.32
  Q 211.05 154.31 319.93 154.31
  Q 332.62 154.31 337.71 165.41
  Q 339.16 168.55 339.45 173.81
  Q 339.72 178.44 339.71 182.83
  Q 339.68 206.22 339.68 230.01
  Q 339.68 230.88 340.30 230.26
  L 405.57 164.96
  A 2.39 2.39 0.0 0 1 409.65 166.65
  Q 409.75 258.98 409.62 352.79
  C 409.62 353.88 408.90 355.04 408.03 355.65
  A 1.59 1.59 0.0 0 1 406.00 355.47
  L 340.25 289.69
  Q 339.72 289.16 339.72 289.91
  Z
  M 302.34 190.96
  A 0.27 0.27 0.0 0 0 302.07 190.69
  L 129.95 190.69
  A 0.27 0.27 0.0 0 0 129.68 190.96
  L 129.68 329.06
  A 0.27 0.27 0.0 0 0 129.95 329.33
  L 302.07 329.33
  A 0.27 0.27 0.0 0 0 302.34 329.06
  L 302.34 190.96
  Z"
/>
<rect fill="transparent" x="129.68" y="190.69" width="172.66" height="138.64" rx="0.27"/>
</svg>
