<?xml version="1.0" encoding="UTF-8" standalone="no"?>
<!DOCTYPE svg PUBLIC "-//W3C//DTD SVG 1.1//EN" "http://www.w3.org/Graphics/SVG/1.1/DTD/svg11.dtd">
<svg xmlns="http://www.w3.org/2000/svg" version="1.1" viewBox="0.00 0.00 400.00 400.00">
<path fill="#000000" d="
  M 169.61 132.52
  Q 173.17 126.84 176.81 121.58
  Q 179.56 117.59 183.59 112.76
  C 185.99 109.88 190.04 105.02 193.23 104.31
  C 195.28 103.86 197.88 106.62 199.19 107.95
  C 206.14 115.00 211.73 123.38 216.78 132.10
  A 0.97 0.97 0.0 0 0 218.25 132.34
  Q 227.50 124.43 239.52 121.84
  Q 242.78 121.14 245.76 121.32
  C 251.75 121.67 257.58 135.56 259.03 140.33
  Q 260.52 145.19 261.53 150.38
  Q 261.65 151.01 262.27 150.83
  Q 278.16 146.16 295.46 146.49
  C 299.06 146.56 301.34 149.37 301.20 152.90
  Q 300.53 169.07 295.32 184.92
  A 0.40 0.40 0.0 0 0 295.68 185.44
  Q 311.05 186.21 322.47 196.02
  Q 325.45 198.57 325.41 201.00
  Q 325.36 203.43 324.49 207.02
  Q 321.56 219.12 314.79 228.16
  Q 313.91 229.34 315.37 229.52
  C 317.23 229.75 318.92 230.51 320.77 230.68
  Q 326.82 231.24 332.51 231.73
  Q 335.72 232.00 337.82 233.94
  C 341.69 237.49 337.45 241.83 334.89 244.30
  C 320.38 258.29 302.73 268.73 283.12 273.40
  Q 253.31 280.49 223.67 270.58
  C 219.21 269.09 196.05 259.31 197.38 252.54
  C 198.00 249.39 202.54 247.43 205.33 246.97
  C 211.21 246.00 217.24 245.72 222.96 243.94
  Q 238.57 239.09 249.53 232.09
  Q 277.47 214.25 287.67 181.16
  Q 291.70 168.08 292.83 155.51
  A 1.17 1.15 -89.1 0 0 291.62 154.25
  Q 264.25 155.76 242.72 168.73
  Q 237.07 172.13 232.66 176.13
  Q 231.21 177.44 230.50 180.50
  Q 228.64 188.44 226.74 197.74
  Q 221.44 223.70 203.58 243.31
  Q 201.61 245.48 198.48 246.28
  Q 197.87 246.44 197.48 245.94
  L 196.10 244.14
  Q 195.19 242.96 196.21 241.87
  Q 202.83 234.79 202.84 234.79
  C 208.48 227.45 211.55 220.14 214.63 211.90
  Q 220.01 197.50 220.51 183.26
  Q 221.03 168.06 215.27 150.97
  Q 208.64 131.33 194.34 114.66
  Q 194.00 114.26 193.60 114.59
  Q 191.53 116.29 189.82 118.39
  Q 177.45 133.69 171.84 148.39
  Q 167.74 159.13 166.47 174.40
  Q 166.08 179.12 166.61 184.22
  C 167.07 188.59 167.17 192.86 168.08 197.23
  Q 172.88 220.24 189.51 237.89
  C 191.65 240.16 192.16 243.72 188.60 244.90
  Q 188.01 245.09 187.43 244.89
  C 183.47 243.51 179.56 238.74 176.83 235.21
  Q 165.35 220.39 161.16 200.80
  Q 160.24 196.47 160.12 192.23
  Q 159.98 187.79 159.11 183.35
  Q 158.39 179.73 155.28 177.70
  Q 147.52 172.61 138.24 167.35
  Q 132.16 163.91 126.69 162.08
  Q 115.38 158.28 103.24 155.86
  Q 99.74 155.16 96.05 155.40
  Q 95.51 155.44 95.43 155.97
  Q 94.99 158.80 95.34 161.42
  Q 96.65 171.38 99.85 182.37
  C 106.63 205.67 122.29 225.95 144.19 237.27
  C 151.72 241.16 160.05 243.31 168.12 245.42
  Q 173.25 246.76 178.28 246.72
  C 181.54 246.70 184.34 247.53 186.97 249.38
  C 192.61 253.33 187.93 257.90 184.29 260.39
  Q 166.17 272.80 145.81 275.50
  Q 89.95 282.91 51.27 243.51
  Q 48.98 241.17 47.64 238.19
  Q 47.41 237.68 47.64 237.17
  Q 49.50 233.10 53.44 232.75
  Q 59.46 232.20 66.21 231.25
  Q 69.94 230.72 73.16 229.22
  Q 73.69 228.98 73.30 228.55
  Q 63.51 217.52 61.57 203.36
  C 60.17 193.06 82.63 186.13 89.89 184.88
  Q 91.34 184.63 91.03 183.18
  Q 89.70 176.96 88.55 170.76
  Q 87.52 165.24 86.75 155.54
  Q 86.51 152.43 87.52 150.67
  C 90.13 146.10 94.13 146.30 98.68 146.88
  Q 111.55 148.53 122.03 151.33
  Q 122.96 151.58 123.93 151.61
  Q 125.25 151.64 125.30 150.32
  C 125.68 140.49 129.89 129.88 137.22 123.54
  C 138.70 122.26 140.38 121.36 142.40 121.73
  Q 152.76 123.60 161.12 128.10
  C 163.76 129.53 166.00 131.42 168.70 132.78
  Q 169.27 133.06 169.61 132.52
  Z
  M 146.10 130.75
  C 143.68 129.92 141.14 130.05 139.70 132.55
  Q 133.91 142.63 132.97 155.10
  A 1.20 1.19 26.9 0 0 133.26 155.98
  Q 134.68 157.58 136.70 158.31
  Q 148.30 162.52 157.62 170.32
  Q 158.22 170.82 158.36 170.06
  C 159.02 166.45 160.19 163.00 160.81 159.36
  Q 162.29 150.55 165.17 142.34
  A 1.68 1.67 28.9 0 0 164.63 140.48
  Q 157.26 134.61 146.10 130.75
  Z
  M 222.59 146.73
  C 224.53 154.05 225.83 161.23 227.59 168.44
  Q 227.76 169.12 228.37 168.78
  C 229.49 168.16 230.97 167.60 231.97 166.81
  Q 240.06 160.43 247.87 157.60
  C 250.92 156.49 253.80 154.52 253.12 150.79
  Q 251.76 143.27 248.42 136.61
  C 246.66 133.09 245.11 129.08 240.18 130.37
  Q 231.83 132.55 224.11 138.14
  C 220.92 140.45 221.74 143.54 222.59 146.73
  Z
  M 107.94 217.35
  A 0.64 0.63 -47.9 0 0 107.91 216.62
  Q 99.79 205.94 92.91 193.95
  Q 92.66 193.53 92.19 193.45
  Q 90.63 193.18 89.04 193.41
  Q 78.32 194.97 71.85 200.81
  Q 70.02 202.46 70.47 204.76
  C 71.83 211.74 76.39 221.38 82.76 225.81
  A 2.43 2.42 -42.0 0 0 85.33 225.94
  Q 95.72 220.16 106.60 218.21
  Q 107.47 218.05 107.94 217.35
  Z
  M 285.59 218.63
  Q 294.31 221.07 302.80 224.31
  Q 306.00 225.54 307.87 223.17
  Q 314.27 215.02 316.47 204.75
  Q 316.79 203.28 316.42 201.93
  Q 316.30 201.51 315.95 201.25
  Q 308.94 196.01 297.86 193.69
  Q 296.47 193.40 295.09 193.47
  A 1.19 1.17 -71.9 0 0 294.20 193.93
  Q 292.68 195.84 291.16 198.12
  Q 284.37 208.27 277.51 216.93
  Q 277.09 217.47 277.77 217.48
  Q 281.66 217.53 285.59 218.63
  Z
  M 220.38 251.31
  Q 214.79 252.21 209.32 252.67
  Q 208.15 252.77 206.93 253.26
  Q 206.45 253.46 206.86 253.77
  Q 209.46 255.75 211.91 256.85
  Q 222.29 261.49 231.73 264.14
  Q 245.28 267.95 261.60 267.54
  Q 284.74 266.96 304.02 256.45
  Q 316.05 249.88 324.48 242.34
  Q 325.63 241.30 326.58 240.06
  A 0.31 0.31 0.0 0 0 326.34 239.57
  C 316.55 239.37 308.46 236.24 299.03 231.96
  Q 290.75 228.20 281.70 225.61
  C 278.05 224.56 272.21 223.20 269.40 225.97
  Q 248.22 246.87 220.38 251.31
  Z
  M 62.75 240.32
  Q 61.45 240.49 60.12 240.52
  Q 59.40 240.54 60.01 240.92
  C 60.80 241.42 61.33 241.67 62.06 242.32
  C 85.73 263.36 117.66 273.57 148.63 265.80
  C 155.47 264.09 161.99 261.03 168.76 258.82
  C 172.13 257.71 174.20 255.69 177.06 253.93
  Q 177.94 253.39 176.91 253.40
  Q 161.96 253.57 146.74 245.63
  Q 127.72 235.70 115.80 227.12
  Q 112.43 224.70 108.98 225.35
  C 100.71 226.91 93.20 230.00 85.69 233.55
  Q 74.86 238.68 62.75 240.32
  Z"
/>
</svg>
